<svg fill="#fff" id="Capa_1" enable-background="new 0 0 512 512" height="512" viewBox="0 0 512 512" width="512"
    xmlns="http://www.w3.org/2000/svg">
    <g>
        <path d="m496.626 307.889v-35.848c0-4.136-1.856-7.986-5.092-10.566l-58.834-46.858v-86.614c0-9.144-7.439-16.637-16.581-16.702l-15.053-.109v-10.522l72.843-72.843c1.005.228 2.047.359 3.121.359 7.783 0 14.093-6.31 14.093-14.093 0-7.784-6.31-14.093-14.093-14.093s-14.093 6.309-14.093 14.093c0 1.074.131 2.115.358 3.12l-73.282 73.283c-2.551 2.552-3.956 5.944-3.956 9.551v10.852c-9.521-.403-18.242-1.279-26.212-2.513v-35.888l44.673-44.671c1.005.228 2.047.359 3.121.359 7.783 0 14.093-6.31 14.093-14.093s-6.31-14.093-14.093-14.093-14.093 6.309-14.093 14.093c0 1.074.131 2.115.358 3.121l-45.115 45.115c-2.549 2.551-3.953 5.943-3.953 9.55v33.596c-11.541-2.727-21.14-6.187-29.037-9.839v-69.63c3.954-2.496 6.588-6.892 6.588-11.914.002-7.783-6.308-14.092-14.091-14.092s-14.093 6.309-14.093 14.093c0 5.021 2.634 9.418 6.588 11.914v61.328c-5.868-3.878-10.008-7.496-12.678-10.167-3.715-3.714-7.204-7.758-10.373-12.022-4.626-6.223-11.728-9.803-19.484-9.821-.02 0-.039 0-.06 0-7.757 0-14.878 3.559-19.541 9.771-3.161 4.209-6.69 8.27-10.492 12.072-3.622 3.622-8.779 7.961-15.832 12.308v-63.47c3.954-2.496 6.588-6.892 6.588-11.914.001-7.783-6.308-14.092-14.092-14.092-7.783 0-14.093 6.309-14.093 14.093 0 5.021 2.634 9.418 6.588 11.914v71.225c-8.325 3.587-18.289 6.851-30.16 9.316v-34.67c0-3.608-1.405-6.999-3.956-9.552l-45.112-45.111c.228-1.005.359-2.047.359-3.121 0-7.783-6.31-14.093-14.093-14.093s-14.093 6.309-14.093 14.093c0 7.783 6.31 14.093 14.093 14.093 1.074 0 2.116-.131 3.121-.359l44.672 44.672v36.563c-8.007 1.05-16.72 1.752-26.212 1.997v-11.012c0-3.608-1.405-7-3.956-9.551l-73.281-73.283c.228-1.005.359-2.047.359-3.121 0-7.784-6.31-14.093-14.093-14.093s-14.093 6.309-14.093 14.093c0 7.783 6.31 14.093 14.093 14.093 1.074 0 2.116-.131 3.121-.359l72.843 72.843v10.553l-10.775.078c-9.143.065-16.582 7.558-16.582 16.702v10.029c0 4.145 3.36 7.504 7.504 7.504s7.504-3.359 7.504-7.504v-10.029c0-.927.754-1.687 1.681-1.693l20.335-.148c39.371-.287 67.391-7.941 86.882-17.095.418-.159.817-.353 1.196-.58 14.455-6.961 24.094-14.704 30.097-20.707 4.3-4.3 8.297-8.901 11.881-13.674 1.801-2.399 4.548-3.774 7.54-3.774h.023c2.975.007 5.701 1.38 7.474 3.766 3.603 4.849 7.575 9.451 11.805 13.682 11.365 11.364 45.63 37.854 118.176 38.382l20.335.148c.926.007 1.681.766 1.681 1.693v111.687c0 27.694-6.438 55.479-18.619 80.352-2.611 5.332-5.532 10.615-8.682 15.699-2.183 3.523-1.097 8.148 2.426 10.331 1.231.763 2.596 1.127 3.946 1.127 2.511 0 4.966-1.261 6.386-3.553 3.411-5.505 6.576-11.226 9.404-17.003 5.303-10.829 9.582-22.173 12.824-33.81l16.157 12.213v105.954c-3.954 2.496-6.588 6.892-6.588 11.913 0 7.783 6.309 14.093 14.093 14.093 7.783 0 14.093-6.31 14.093-14.093 0-5.022-2.635-9.418-6.589-11.914v-106.701c0-4.209-2.004-8.237-5.363-10.776l-22.05-16.668c2.351-12.251 3.571-24.715 3.571-37.165v-5.886l48.917 38.961v35.125c-3.954 2.496-6.588 6.892-6.588 11.914 0 7.783 6.309 14.093 14.093 14.093 7.783 0 14.093-6.31 14.093-14.093 0-5.022-2.635-9.418-6.589-11.914z"/>
        <path d="m386.305 485.994v-70.402c0-3.608-1.405-6.999-3.956-9.552l-17.391-17.391c6.855-5.991 13.335-12.477 19.333-19.392 2.715-3.131 2.378-7.871-.752-10.586-3.13-2.714-7.87-2.378-10.586.752-7.851 9.053-16.578 17.327-25.94 24.593l-66.896 51.919c-6.259 4.857-14.064 7.533-21.978 7.533-8.028 0-15.628-2.605-21.978-7.533l-66.896-51.919c-21.879-16.982-39.881-39.104-52.061-63.975s-18.619-52.656-18.619-80.351v-68.252c0-4.145-3.36-7.504-7.504-7.504s-7.504 3.359-7.504 7.504v39.774l-63.11 50.264c-3.237 2.578-5.093 6.429-5.093 10.566v35.848c-3.954 2.496-6.588 6.892-6.588 11.914 0 7.783 6.31 14.093 14.093 14.093s13.759-6.31 13.759-14.093c0-4.98-2.454-9.347-6.255-11.854v-35.185l53.194-42.367v9.292c0 11.492 1.033 22.996 3.04 34.333l-25.798 19.501c-3.356 2.54-5.36 6.567-5.36 10.774v106.701c-3.954 2.496-6.588 6.892-6.588 11.914 0 7.783 6.31 14.093 14.093 14.093s13.759-6.31 13.759-14.093c0-4.98-2.454-9.347-6.255-11.854v-106.014l19.694-14.887c3.316 12.576 7.855 24.826 13.564 36.484 11.075 22.614 26.611 43.114 45.333 59.993l-19.406 19.405c-2.551 2.551-3.956 5.944-3.956 9.552v70.402c-3.954 2.496-6.588 6.892-6.588 11.914 0 7.783 6.31 14.093 14.093 14.093s14.093-6.31 14.093-14.093c0-5.022-2.634-9.418-6.588-11.914v-69.78l19.912-19.912 66.342 51.489c8.878 6.891 19.951 10.685 31.179 10.685s22.302-3.794 31.18-10.685l63.934-49.62 18.044 18.043v69.779c-3.954 2.496-6.589 6.892-6.589 11.914 0 7.783 6.31 14.093 14.093 14.093s14.093-6.31 14.093-14.093c-.002-5.021-2.636-9.417-6.59-11.913z"/>
        <circle cx="258.138" cy="422.913" r="8.598"/>
        <path d="m266.736 98.979c0-4.748-3.849-8.598-8.598-8.598s-8.598 3.849-8.598 8.598c0 4.748 3.849 8.598 8.598 8.598s8.598-3.849 8.598-8.598z"/>
        <circle cx="396.162" cy="149.632" r="8.598"/>
        <circle cx="119.089" cy="149.632" r="8.598"/>
        <path d="m182.302 294.138c-4.145 0-7.504 3.359-7.504 7.504v33.468c0 13.754 11.19 24.944 24.944 24.944h116.794c13.754 0 24.943-11.19 24.943-24.944v-76.087c0-10.388-6.385-19.31-15.435-23.056v-27.984c0-38.635-31.431-70.066-70.066-70.066s-70.066 31.431-70.066 70.066v30.294c-6.695 4.478-11.114 12.105-11.114 20.747v7.029c0 4.145 3.36 7.504 7.504 7.504s7.504-3.359 7.504-7.504v-7.029c0-5.479 4.457-9.936 9.935-9.936h116.794c5.478 0 9.935 4.457 9.935 9.936v76.087c0 5.479-4.457 9.935-9.935 9.935h-116.794c-5.478 0-9.935-4.457-9.935-9.935v-33.468c0-4.146-3.36-7.505-7.504-7.505zm73.675-141.213c30.359 0 55.058 24.699 55.058 55.058v26.096h-13.434v-26.096c0-22.952-18.672-41.624-41.624-41.624-22.951 0-41.624 18.672-41.624 41.624v26.096h-13.433v-26.096c0-30.359 24.698-55.058 55.057-55.058zm26.616 81.154h-53.23v-26.096c0-14.676 11.94-26.615 26.615-26.615s26.615 11.94 26.615 26.615z"/>
        <path d="m254.726 325.295h8.58c1.091 0 1.976-.885 1.976-1.976v-14.856c0-.511.284-.99.747-1.206 5.651-2.642 9.568-8.374 9.568-15.025 0-9.509-8.004-17.148-17.643-16.547-8.241.514-14.952 7.21-15.483 15.449-.458 7.101 3.559 13.316 9.504 16.109.466.219.776.673.776 1.188v14.888c-.001 1.091.884 1.976 1.975 1.976z"/>
    </g>
</svg>